<svg xmlns="http://www.w3.org/2000/svg" xmlns:xlink="http://www.w3.org/1999/xlink" width="245" height="35" viewBox="0 0 245 35">
  <defs>
    <path id="sprit-payment-a" d="M51.0676853,22.2315476 C51.0114281,17.7783016 55.0204911,15.2930454 58.0406124,13.8155666 C61.143639,12.2994415 62.1858769,11.3273377 62.1740333,9.97174343 C62.1503461,7.89673292 59.6987182,6.98111224 57.4040182,6.94543871 C53.400877,6.88301002 51.0736071,8.03050867 49.2230425,8.89856464 L47.7810827,2.12356615 C49.637569,1.26442856 53.0751777,0.515284367 56.6401052,0.482583628 C65.0076177,0.482583628 70.4823278,4.62963185 70.5119369,11.0597862 C70.5445068,19.2201069 59.2693873,19.6719716 59.3463707,23.3195904 C59.3730189,24.4254699 60.4241395,25.6056693 62.7277222,25.9059215 C63.86767,26.0575341 67.0151101,26.173473 70.5829986,24.5235721 L71.9835058,31.0785838 C70.0648405,31.7801633 67.5984081,32.4520149 64.5279514,32.4520149 C56.6519488,32.4520149 51.1120988,28.2484835 51.0676853,22.2315476 M85.440811,31.8871839 C83.912985,31.8871839 82.6249921,30.9923728 82.0505768,29.6189418 L70.0974104,0.964176325 L78.4590012,0.964176325 L80.1230288,5.58092607 L90.3411059,5.58092607 L91.3063604,0.964176325 L98.6760486,0.964176325 L92.2449667,31.8871839 L85.440811,31.8871839 M86.6103678,23.5336316 L89.023504,11.9218966 L82.4147679,11.9218966 L86.6103678,23.5336316 M40.9295525,31.8871839 L34.3385819,0.964176325 L42.3063726,0.964176325 L48.8943823,31.8871839 L40.9295525,31.8871839 M29.1421967,31.8871839 L20.8487067,10.8397994 L17.4940033,28.7360218 C17.1002032,30.7337397 15.545729,31.8871839 13.8195224,31.8871839 L0.261546453,31.8871839 L0.0720486457,30.9894 C2.8552977,30.3829499 6.01754236,29.4049006 7.93324676,28.3584769 C9.10576445,27.7193261 9.44034652,27.1604408 9.82526394,25.6413428 L16.1793623,0.964176325 L24.6001711,0.964176325 L37.5097093,31.8871839 L29.1421967,31.8871839"/>
    <linearGradient id="sprit-payment-c" x1="16.148%" x2="85.832%" y1="39.854%" y2="60.634%">
      <stop offset="0%" stop-color="#222357"/>
      <stop offset="100%" stop-color="#254AA5"/>
    </linearGradient>
    <linearGradient id="sprit-payment-d" x1="76.038%" x2="29.83%" y1="29.641%" y2="79.988%">
      <stop offset="0%" stop-color="#222E72"/>
      <stop offset="59.165%" stop-color="#40CBFF"/>
      <stop offset="100%" stop-color="#3CB792"/>
    </linearGradient>
    <polygon id="sprit-payment-e" points="0 .259 16.1 .259 16.1 13.3 0 13.3"/>
    <polygon id="sprit-payment-g" points=".424 .468 14.578 .468 14.578 6.709 .424 6.709"/>
  </defs>
  <g fill="none" fill-rule="evenodd">
    <g transform="matrix(1 0 0 -1 51.126 33.85)">
      <mask id="sprit-payment-b" fill="#fff">
        <use xlink:href="#sprit-payment-a"/>
      </mask>
      <g mask="url(#sprit-payment-b)">
        <polyline fill="url(#sprit-payment-c)" fill-rule="nonzero" points="0 60.447 97.154 96.37 119.256 36.113 22.103 .189" transform="translate(-10.254 -31.813)"/>
      </g>
    </g>
    <g transform="translate(153)">
      <polygon fill="#FF5F00" fill-rule="nonzero" points="34.018 29.786 19.858 29.786 19.858 4.235 34.018 4.235"/>
      <path fill="#EB001B" fill-rule="nonzero" d="M20.7650382,17.0082284 C20.7650382,22.1914606 23.1821483,26.8085354 26.9462132,29.7839606 C24.1936507,31.9597404 20.7197624,33.2583895 16.9443785,33.2583895 C8.00652492,33.2583895 0.761368702,25.9830615 0.761368702,17.0082284 C0.761368702,8.03339535 8.00652492,0.758067335 16.9443785,0.758067335 C20.7197624,0.758067335 24.1936507,2.05671649 26.9462132,4.23249621 C23.1821483,7.20792147 20.7650382,11.8249963 20.7650382,17.0082284" transform="matrix(1 0 0 -1 0 34.016)"/>
      <path fill="#F79E1B" fill-rule="nonzero" d="M53.1166518,17.0082284 C53.1166518,8.03339535 45.8714956,0.758067335 36.933642,0.758067335 C33.1582581,0.758067335 29.6843698,2.05671649 26.9307783,4.23249621 C30.6958723,7.20792147 33.1129823,11.8249963 33.1129823,17.0082284 C33.1129823,22.1914606 30.6958723,26.8085354 26.9307783,29.7839606 C29.6843698,31.9597404 33.1582581,33.2583895 36.933642,33.2583895 C45.8714956,33.2583895 53.1166518,25.9830615 53.1166518,17.0082284" transform="matrix(1 0 0 -1 0 34.016)"/>
    </g>
    <g fill-rule="nonzero" transform="translate(211 1)">
      <path fill="#006FCF" d="M32.9266667,17.9465765 L32.9266667,0.0868882979 L0,0.0868882979 L0,33.0868883 L32.9266667,33.0868883 L32.9266667,23.4588259 C32.8533333,23.4588259 32.9266667,17.9465765 32.9266667,17.9465765"/>
      <path fill="#FFF" d="M28.8933333,15.8715957 L31.3866667,15.8715957 L31.3866667,10.1514495 L28.6733333,10.1514495 L28.6733333,10.9479255 L28.16,10.1514495 L25.8133333,10.1514495 L25.8133333,11.1651463 L25.3733333,10.1514495 L21.56,10.1514495 C21.4133333,10.1514495 21.1933333,10.1514495 21.0466667,10.1514495 C20.9,10.1514495 20.7533333,10.2238564 20.6066667,10.2238564 C20.46,10.2238564 20.3866667,10.2962633 20.24,10.3686702 C20.0933333,10.4410771 20.02,10.4410771 19.8733333,10.513484 L19.8733333,10.3686702 L19.8733333,10.1514495 L7.48,10.1514495 L7.11333333,11.0927394 L6.74666667,10.1514495 L3.81333333,10.1514495 L3.81333333,11.1651463 L3.37333333,10.1514495 L1.02666667,10.1514495 L-5.32907052e-15,12.6132846 L-5.32907052e-15,15.8715957 L1.68666667,15.8715957 L1.98,15.0751197 L2.56666667,15.0751197 L2.86,15.8715957 L15.7666667,15.8715957 L15.7666667,15.1475266 L16.28,15.8715957 L19.8733333,15.8715957 L19.8733333,15.7267819 L19.8733333,15.4371543 C19.9466667,15.5095612 20.0933333,15.5095612 20.1666667,15.5819681 C20.24,15.654375 20.3866667,15.654375 20.46,15.7267819 C20.6066667,15.7991888 20.7533333,15.7991888 20.9,15.7991888 C21.0466667,15.7991888 21.2666667,15.7991888 21.4133333,15.7991888 L23.54,15.7991888 L23.8333333,15.0027128 L24.42,15.0027128 L24.7133333,15.7991888 L28.3066667,15.7991888 L28.3066667,15.0751197 L28.8933333,15.8715957 Z M32.9266667,23.1122872 L32.9266667,17.7541755 L12.76,17.7541755 L12.2466667,18.4782447 L11.7333333,17.7541755 L5.86666667,17.7541755 L5.86666667,23.4743218 L11.7333333,23.4743218 L12.2466667,22.7502527 L12.76,23.4743218 L16.4266667,23.4743218 L16.4266667,22.2434043 L16.28,22.2434043 C16.7933333,22.2434043 17.2333333,22.1709973 17.6,22.0261835 L17.6,23.5467287 L20.24,23.5467287 L20.24,22.8226596 L20.7533333,23.5467287 L31.68,23.5467287 C32.12,23.4019149 32.56,23.329508 32.9266667,23.1122872 L32.9266667,23.1122872 Z"/>
      <path fill="#006FCF" d="M31.68,21.7365559 L29.7,21.7365559 L29.7,22.5330319 L31.6066667,22.5330319 C32.4133333,22.5330319 32.9266667,22.0261835 32.9266667,21.3021144 C32.9266667,20.5780452 32.4866667,20.2160106 31.7533333,20.2160106 L30.8733333,20.2160106 C30.6533333,20.2160106 30.5066667,20.0711968 30.5066667,19.8539761 C30.5066667,19.6367553 30.6533333,19.4919415 30.8733333,19.4919415 L32.56,19.4919415 L32.9266667,18.6954654 L30.9466667,18.6954654 C30.14,18.6954654 29.6266667,19.2023138 29.6266667,19.8539761 C29.6266667,20.5780452 30.0666667,20.9400798 30.8,20.9400798 L31.68,20.9400798 C31.9,20.9400798 32.0466667,21.0848936 32.0466667,21.3021144 C32.12,21.591742 31.9733333,21.7365559 31.68,21.7365559 L31.68,21.7365559 Z M28.0866667,21.7365559 L26.1066667,21.7365559 L26.1066667,22.5330319 L28.0133333,22.5330319 C28.82,22.5330319 29.3333333,22.0261835 29.3333333,21.3021144 C29.3333333,20.5780452 28.8933333,20.2160106 28.16,20.2160106 L27.28,20.2160106 C27.06,20.2160106 26.9133333,20.0711968 26.9133333,19.8539761 C26.9133333,19.6367553 27.06,19.4919415 27.28,19.4919415 L28.9666667,19.4919415 L29.3333333,18.6954654 L27.3533333,18.6954654 C26.5466667,18.6954654 26.0333333,19.2023138 26.0333333,19.8539761 C26.0333333,20.5780452 26.4733333,20.9400798 27.2066667,20.9400798 L28.0866667,20.9400798 C28.3066667,20.9400798 28.4533333,21.0848936 28.4533333,21.3021144 C28.5266667,21.591742 28.3066667,21.7365559 28.0866667,21.7365559 L28.0866667,21.7365559 Z M25.52,19.4195346 L25.52,18.6230585 L22.44,18.6230585 L22.44,22.460625 L25.52,22.460625 L25.52,21.6641489 L23.32,21.6641489 L23.32,20.8676729 L25.4466667,20.8676729 L25.4466667,20.0711968 L23.32,20.0711968 L23.32,19.3471277 L25.52,19.3471277 L25.52,19.4195346 Z M20.5333333,19.4195346 C20.9,19.4195346 21.0466667,19.6367553 21.0466667,19.8539761 C21.0466667,20.0711968 20.9,20.2884176 20.5333333,20.2884176 L19.4333333,20.2884176 L19.4333333,19.3471277 L20.5333333,19.4195346 L20.5333333,19.4195346 Z M19.4333333,21.0848936 L19.8733333,21.0848936 L21.0466667,22.460625 L22.1466667,22.460625 L20.8266667,21.0124867 C21.4866667,20.8676729 21.8533333,20.4332314 21.8533333,19.8539761 C21.8533333,19.1299069 21.34,18.6230585 20.5333333,18.6230585 L18.48,18.6230585 L18.48,22.460625 L19.36,22.460625 L19.4333333,21.0848936 L19.4333333,21.0848936 Z M17.0866667,19.926383 C17.0866667,20.2160106 16.94,20.4332314 16.5733333,20.4332314 L15.4,20.4332314 L15.4,19.4195346 L16.5,19.4195346 C16.8666667,19.4195346 17.0866667,19.6367553 17.0866667,19.926383 L17.0866667,19.926383 Z M14.52,18.6230585 L14.52,22.460625 L15.4,22.460625 L15.4,21.1573005 L16.5733333,21.1573005 C17.38,21.1573005 17.9666667,20.6504521 17.9666667,19.8539761 C17.9666667,19.1299069 17.4533333,18.5506516 16.6466667,18.5506516 L14.52,18.6230585 L14.52,18.6230585 Z M13.2,22.460625 L14.3,22.460625 L12.76,20.5056383 L14.3,18.6230585 L13.2,18.6230585 L12.2466667,19.8539761 L11.2933333,18.6230585 L10.1933333,18.6230585 L11.7333333,20.5056383 L10.1933333,22.3882181 L11.2933333,22.3882181 L12.2466667,21.1573005 L13.2,22.460625 Z M9.9,19.4195346 L9.9,18.6230585 L6.82,18.6230585 L6.82,22.460625 L9.9,22.460625 L9.9,21.6641489 L7.7,21.6641489 L7.7,20.8676729 L9.82666667,20.8676729 L9.82666667,20.0711968 L7.7,20.0711968 L7.7,19.3471277 L9.9,19.3471277 L9.9,19.4195346 Z M27.72,12.6132846 L29.26,14.9303059 L30.36,14.9303059 L30.36,11.0927394 L29.48,11.0927394 L29.48,13.6269814 L29.26,13.2649468 L27.8666667,11.0927394 L26.6933333,11.0927394 L26.6933333,14.9303059 L27.5733333,14.9303059 L27.5733333,12.3236569 L27.72,12.6132846 Z M23.9066667,12.5408777 L24.2,11.7444016 L24.4933333,12.5408777 L24.86,13.4097606 L23.54,13.4097606 L23.9066667,12.5408777 Z M25.4466667,14.9303059 L26.4,14.9303059 L24.7133333,11.0927394 L23.54,11.0927394 L21.8533333,14.9303059 L22.8066667,14.9303059 L23.1733333,14.1338298 L25.08,14.1338298 L25.4466667,14.9303059 Z M21.34,14.9303059 L21.34,14.9303059 L21.7066667,14.1338298 L21.4866667,14.1338298 C20.8266667,14.1338298 20.46,13.6993883 20.46,13.0477261 L20.46,12.9753191 C20.46,12.3236569 20.8266667,11.8892154 21.4866667,11.8892154 L22.44,11.8892154 L22.44,11.0927394 L21.4133333,11.0927394 C20.24,11.0927394 19.58,11.8892154 19.58,12.9753191 L19.58,13.0477261 C19.58,14.2062367 20.24,14.9303059 21.34,14.9303059 L21.34,14.9303059 Z M18.04,14.9303059 L18.92,14.9303059 L18.92,13.1925399 L18.92,11.1651463 L18.04,11.1651463 L18.04,13.120133 L18.04,14.9303059 Z M16.1333333,11.8892154 C16.5,11.8892154 16.6466667,12.1064362 16.6466667,12.3236569 C16.6466667,12.5408777 16.5,12.7580984 16.1333333,12.7580984 L15.0333333,12.7580984 L15.0333333,11.8168085 L16.1333333,11.8892154 L16.1333333,11.8892154 Z M15.0333333,13.5545745 L15.4733333,13.5545745 L16.6466667,14.9303059 L17.7466667,14.9303059 L16.4266667,13.4821676 C17.0866667,13.3373537 17.4533333,12.9029122 17.4533333,12.3236569 C17.4533333,11.5995878 16.94,11.0927394 16.1333333,11.0927394 L14.08,11.0927394 L14.08,14.9303059 L14.96,14.9303059 L15.0333333,13.5545745 L15.0333333,13.5545745 Z M13.42,11.8892154 L13.42,11.0927394 L10.34,11.0927394 L10.34,14.9303059 L13.42,14.9303059 L13.42,14.1338298 L11.22,14.1338298 L11.22,13.3373537 L13.3466667,13.3373537 L13.3466667,12.5408777 L11.22,12.5408777 L11.22,11.8168085 L13.42,11.8168085 L13.42,11.8892154 L13.42,11.8892154 Z M6.74666667,14.9303059 L7.55333333,14.9303059 L8.65333333,11.8168085 L8.65333333,14.9303059 L9.53333333,14.9303059 L9.53333333,11.0927394 L8.06666667,11.0927394 L7.18666667,13.6993883 L6.30666667,11.0927394 L4.84,11.0927394 L4.84,14.9303059 L5.72,14.9303059 L5.72,11.8168085 L6.74666667,14.9303059 Z M1.98,12.5408777 L2.27333333,11.7444016 L2.56666667,12.5408777 L2.93333333,13.4097606 L1.61333333,13.4097606 L1.98,12.5408777 Z M3.52,14.9303059 L4.47333333,14.9303059 L2.78666667,11.0927394 L1.68666667,11.0927394 L-5.32907052e-15,14.9303059 L0.953333333,14.9303059 L1.32,14.1338298 L3.22666667,14.1338298 L3.52,14.9303059 Z"/>
    </g>
    <g transform="translate(1 1)">
      <rect width="47" height="34" x="-.5" y="-.5" fill="url(#sprit-payment-d)" stroke="#FFF"/>
      <g transform="translate(8 10.442)">
        <mask id="sprit-payment-f" fill="#fff">
          <use xlink:href="#sprit-payment-e"/>
        </mask>
        <path fill="#FEFEFE" d="M8.02935227,6.22755 L16.0872386,6.22755 C16.015375,4.64625 15.6095568,3.01595 14.3787159,1.96875 C12.9125568,0.72135 10.3444886,0.25865 8.04978409,0.25865 C5.661375,0.25865 3.02003409,0.76615 1.546125,2.10455 C0.275125,3.25745 0.000352272727,5.11245 0.000352272727,6.77915 C0.000352272727,8.52495 0.537920455,10.55565 1.91671591,11.72535 C3.382875,12.96995 5.75860227,13.30035 8.04978409,13.30035 C10.2754432,13.30035 12.6863977,12.92725 14.1441023,11.74565 C15.5975795,10.56545 16.0999205,8.57745 16.0999205,6.77915 L16.0999205,6.77075 L8.02935227,6.77075 L8.02935227,6.22755 Z" mask="url(#sprit-payment-f)"/>
      </g>
      <g transform="translate(24.205 16.742)">
        <mask id="sprit-payment-h" fill="#fff">
          <use xlink:href="#sprit-payment-g"/>
        </mask>
        <path fill="#FEFEFE" d="M0.423502273,0.47103 L0.423502273,6.70873 L11.6328205,6.70873 L11.6328205,6.70033 C13.2730023,6.61913 14.5778205,5.27653 14.5778205,3.62803 C14.5778205,1.97883 13.2730023,0.55013 11.6328205,0.46823 L11.6328205,0.47103 L0.423502273,0.47103 Z" mask="url(#sprit-payment-h)"/>
      </g>
      <path fill="#FEFEFE" d="M38.5772023,13.80975 C38.5772023,12.22075 37.3083159,10.96145 35.7097023,10.96145 C35.5990886,10.96145 35.4631114,10.94045 35.3560205,10.95235 L24.6279068,10.95235 L24.6279068,16.66925 L35.9295205,16.66925 C37.4118841,16.54255 38.5772023,15.31405 38.5772023,13.80975"/>
    </g>
  </g>
</svg>
